<svg viewBox="0 0 248 160" fill="none" xmlns="http://www.w3.org/2000/svg">
  <g clip-path="url(#a)">
    <path d="M0 0h248v160H0z" fill="#5551FF"></path>
    <path d="M56 13h135v135H56z" stroke-width="2" stroke="#000" fill="#0FA958"></path>
    <path d="M65 21h117v117H65z" stroke-width="2" stroke="#000" fill="#FFC700"></path>
    <path d="M75 31h97v97H75z" stroke-width="2" stroke="#000" fill="#fff"></path>
    <path d="M130.8 61.8c-.7 0-1-1.2-.6-1.8a8.4 8.4 0 0 0-6.2-14 8.4 8.4 0 0 0-6.2 14c.5.6.1 1.8-.6 1.8h-13.6a2.6 2.6 0 0 0-2.6 2.5v41.1c0 1.4 1.1 2.6 2.6 2.6h40.8c1.5 0 2.6-1.2 2.6-2.6V92.5c0-1-1.6-1.4-2.3-.9a8.4 8.4 0 0 1-13.4-6.7 8.4 8.4 0 0 1 13.4-6.8c.7.6 2.3 0 2.3-.9V64.3c0-1.4-1.1-2.5-2.6-2.5h-13.6z" stroke-width="2" stroke="#000" fill="#5551FF"></path>
  </g>
  <defs>
    <clipPath id="a">
      <path d="M0 0h248v160H0z" fill="#fff"></path>
    </clipPath>
  </defs>
</svg>
