<svg viewBox="0 0 240 120" fill="none" xmlns="http://www.w3.org/2000/svg">
  <path d="M0 0h240v120H0z" fill="#5551FF"></path>
  <path d="M86.28 28.05a20.93 20.93 0 0 1 41.87 0v60.68a20.93 20.93 0 1 1-41.87 0V28.05Z" fill="#FFC700"></path>
  <path d="M107.21 109.67a20.93 20.93 0 0 1-20.93-20.94V28.05a20.93 20.93 0 1 1 41.87 0V58.4" stroke-width="2" stroke="#000"></path>
  <path d="m154 49.58 41.58 16.92 16.92-41.58L170.92 8z" stroke-width="2" stroke="#000" fill="#0FA958"></path>
  <path d="m175.86 55.35 25.47-10.74-10.74-25.47-25.46 10.74z" stroke-width="2" stroke="#000" fill="#5551FF"></path>
  <path d="m40.5 43.1 7.93.04L36.1 10.12l-9.3-.05-12.76 32.88 7.69.04 2.77-7.7 13.4.07 2.6 7.73ZM26.63 29.36l2.54-7.1c.81-2.25.87-4.7.94-8.18l2.54.01c.03 3.48.11 5.93.86 8.15l2.41 7.17-9.29-.05Zm29.17 23 12.11.06c4.63.03 8.22-2.5 8.25-7.25.02-3.81-3.12-7.13-8.17-7.15l-10.14-.06c-1.37 0-2.36-.01-2.35-1.05 0-.75.48-1.27 1.8-1.63 1.41.61 3.16.81 4.9.82 5.52.03 9.64-3.05 10.23-8.13l.05-.43c.3-2.4.68-2.72 2.14-2.72l2.6.02.02-5.09H76c-2.26-.02-3.35.78-3.75 4.21h-2.02c-1.21-3.45-4.74-4.98-8.6-5-5.52-.03-9.83 3.48-9.86 8.42-.01 2.4 1.02 3.73 2.66 4.91l-.01 2.12c-2.03.65-3.88 1.86-3.9 4.4 0 1.7 1.17 2.74 2.68 3.17l-.01 2.17c-1.7.5-3.27 1.87-3.28 3.75 0 2.26 1.4 4.43 5.87 4.46Zm6.38-20.64c-2.5-.01-4.14-1.62-4.13-4.02.01-2.45 1.67-4.23 4.17-4.21 2.5 0 4.14 1.8 4.13 4.25-.01 2.4-1.67 4-4.17 3.98Zm-4.76 15.8c-1.27-.01-2.35-.72-2.34-2.23 0-.94.67-1.79 1.24-2.11l10.32.05c2.22.02 2.92 1.06 2.92 2.14-.01 1.32-.72 2.2-2.94 2.2l-9.2-.05Z" fill="#000"></path>
  <path d="M20.38 61.78h47.84v47.84H20.38z" stroke-width="2" stroke="#000"></path>
  <path d="M17.62 58.58h5v5h-5zm48.72 0h5v5h-5zm-48.72 50.17h5v5h-5zm48.72-1h5v5h-5z" stroke-width="2" stroke="#000" fill="#fff"></path>
  <circle transform="rotate(-15 38.67 64.72)" stroke-width="2" stroke="#000" fill="#fff" r="2.19" cy="64.72" cx="38.67"></circle>
  <circle transform="rotate(-15 49.92 106.69)" stroke-width="2" stroke="#000" fill="#fff" r="2.19" cy="106.69" cx="49.92"></circle>
  <path d="m39.08 66.62 10.17 37.98" stroke-width="2" stroke="#000"></path>
  <circle transform="rotate(75 65.28 80.08)" stroke-width="2" stroke="#000" fill="#fff" r="2.19" cy="80.08" cx="65.28"></circle>
  <circle transform="rotate(75 23.31 91.33)" stroke-width="2" stroke="#000" fill="#fff" r="2.19" cy="91.33" cx="23.31"></circle>
  <path d="M63.26 80.58 25.4 90.66" stroke-width="2" stroke="#000"></path>
  <circle transform="rotate(120 63.11 96.57)" stroke-width="2" stroke="#000" fill="#fff" r="2.19" cy="96.57" cx="63.11"></circle>
  <circle transform="rotate(120 25.48 74.84)" stroke-width="2" stroke="#000" fill="#fff" r="2.19" cy="74.84" cx="25.48"></circle>
  <path d="m61.19 95.54-33.76-19.7" stroke-width="2" stroke="#000"></path>
  <circle transform="rotate(-150 33.43 104.52)" stroke-width="2" stroke="#000" fill="#fff" r="2.19" cy="104.52" cx="33.43"></circle>
  <path d="M53.26 65.79a2.2 2.2 0 1 1 3.8 2.2 2.2 2.2 0 0 1-3.8-2.2Z" stroke-width="2" stroke="#000" fill="#fff"></path>
  <path d="m34.54 102.75 19.61-33.91" stroke-width="2" stroke="#000"></path>
  <circle transform="rotate(75 44.3 85.7)" stroke-width="2" stroke="#000" fill="#fff" r="2.19" cy="85.7" cx="44.3"></circle>
  <circle stroke-width="2" stroke="#000" fill="#fff" r="1.99" cy="6.99" cx="107.34"></circle>
  <circle stroke-width="2" stroke="#000" fill="#fff" r="1.99" cy="109.27" cx="107.34"></circle>
  <circle stroke-width="2" stroke="#000" fill="#fff" r="1.99" cy="57.07" cx="86.41"></circle>
  <circle stroke-width="2" stroke="#000" fill="#fff" r="1.99" cy="57.07" cx="128.01"></circle>
  <path d="M146 72h19v19h-19zm19 0h19v19h-19zm19 0h19v19h-19zm23-7h19v19h-19zm-61 26h19v19h-19zm19 0h19v19h-19zm19 0h19v19h-19zm19 0h19v19h-19z" stroke-width="2" stroke="#000" fill="#fff"></path>
  <path d="M129.55 69.08a7.06 7.06 0 0 0 8.27 6.54l2.76 3.72 5.15-3.84-2.79-3.74a7.06 7.06 0 0 0-3.6-9.61L127.93 57l1.62 12.08Z" fill="#fff"></path>
  <path d="m127.93 57 11.41 5.15a7.07 7.07 0 0 1 3.6 9.6l2.79 3.75-5.15 3.84-2.76-3.72a7.06 7.06 0 0 1-8.26-6.55L127.92 57Zm0 0 8.64 11.62" stroke-width="2" stroke="#010101"></path>
  <path d="M137.6 70.23a1.92 1.92 0 1 1-2.3-3.1 1.92 1.92 0 1 1 2.3 3.1Z" fill="#010101"></path>
  <path clip-rule="evenodd" d="M215.6 102.79 214.7 82l-15.48 14.78 9.97-1.27 6.4 7.28Z" stroke-width="2" stroke-linecap="square" stroke="#010101" fill-rule="evenodd" fill="#F24E1E"></path>
  <path clip-rule="evenodd" d="m76.09 39.73-5.43 20.1 19.22-9.42-9.9-1.8-3.9-8.88Z" stroke-width="2" stroke-linecap="square" stroke="#fff" fill-rule="evenodd" fill="#010101"></path>
</svg>
